<svg version="1" xmlns="http://www.w3.org/2000/svg" width="682.667" height="682.667" viewBox="0 0 512.000000 512.000000"><path d="M184.9 151.7c-.8.1-12.4.4-25.9.7-19.8.4-25.9.8-32 2.4-8 2.1-17.7 5.7-19.7 7.4-.7.6-1.3.7-1.3.4 0-.4-1.3.2-2.9 1.3-1.6 1.2-3.4 2.1-3.9 2.1-.6 0-1.2.3-1.4.8-.2.4-1.7 1.6-3.4 2.7-4 2.5-14.1 11.2-16.9 14.4-1.1 1.4-2.7 3.2-3.6 4.2-.9.9-3.4 4.1-5.5 7.1-9.4 13.1-13.5 22.1-17.4 38.4-2 8.5-2.6 38.8-.7 41.1.5.7.7 2.4.5 3.8-.3 1.4-.2 2.5.2 2.5s1.5 2.8 2.4 6.2c1 3.5 2.7 8.3 3.8 10.8 1.2 2.5 2 4.8 2 5.2-.1.5.2.8.8.8.5 0 1 .6 1 1.4 0 .7.9 2.5 2.1 4 1.1 1.4 1.7 3.1 1.3 3.8-.4.7-.4 1 .1.6 1.1-1 5.6 5.2 4.8 6.6-.3.6-.3.8.2.4 1-1 5.6 4.3 4.8 5.5-.3.6-.1.7.5.3.6-.3 1.9.4 2.9 1.6 1 1.3 4.7 4.8 8.3 7.8 3.6 3 6.6 5.8 6.8 6.2.2.5.9.8 1.6.8.7 0 2.1.8 3.2 1.8 1 .9 4.2 2.8 6.9 4.2 2.8 1.4 5.3 2.9 5.6 3.3.3.5.9.8 1.3.8 2.2-.3 3.6 0 3.2.7-.2.4.3.8 1.2.8 2.9.1 4.6.8 6 2.4.8.8 1.1.9.7.2-.7-1.3.7-1.7 1.9-.5.9.9 3.5 1.5 6.4 1.4 1.3-.1 2.1.2 1.8.7-.2.4 1.6.6 4 .5 2.4 0 4.4.2 4.4.6 0 .3 1.7.6 3.8.5 2-.1 4.3.3 5.1.9 1 .8 1.2.8.8.1-.9-1.6 9.2-1.8 11.1-.2 1 .8 1.3.9.9.1-.8-1.4 5-1.3 7.2.1.9.6 1.2.5.8-.1-.9-1.4 11.4-1.3 13.2.1 1.1.8 1.3.8.7-.2-.6-.9.5-1.2 4.3-1.1 3.3.2 4.8.6 4.4 1.3-.5.8-.3.8.8 0 1.7-1.3 13.8-1.3 15.8 0 .9.6 1.2.5.7-.2-.8-1.3 5.2-1.1 7.3.2.9.6 1.2.5.7-.2-.4-.7 1.2-1.1 5.1-1 11.3.1 12.6-.1 12-1.7-.4-.8-.2-1.7.4-2 .5-.4.6-1.2.2-1.8-1-1.6-1-7.6-.1-10.4.4-1.2.4-2.5-.1-2.7-.9-.6-.8-3.7.3-5.4.4-.6.4-1.2-.1-1.2-.4 0-.8-3.3-.8-7.3v-7.2l-23-.2c-12.6-.2-23.7-.3-24.5-.3-.8 0-9.6.1-19.5.2s-20.8-.2-24.2-.6c-7.2-.8-19.7-4.7-22.2-7-1-.9-2.1-1.6-2.6-1.6-1.6 0-7.5-5.1-7-6.1.3-.5 0-.6-.8-.3-1.5.5-10.9-9.4-13.8-14.6-.9-1.7-2.2-3.6-2.8-4.4-.6-.8-1.4-2.4-1.6-3.6-.2-1.2-.8-2.7-1.3-3.4-3.6-4.8-5.7-38.3-2.3-36.1.4.2.6-.9.3-2.4-.2-1.6.2-3.4 1.2-4.3.8-.9 1.2-1.8.9-2.2-.9-.8 1.8-5.7 2.8-5 .4.2 1.1-.1 1.5-.7.4-.8.3-.9-.4-.5-1.8 1.1-1.5-1.9.3-3.4.8-.7 1.5-1.8 1.5-2.5 0-.8 1.1-2.2 2.5-3.3 1.4-1.1 2.5-2.3 2.5-2.7 0-1.2 3-3.6 3.9-3.1.5.3.8 0 .7-.7-.2-1.8 7.1-8.1 13.5-11.6 4.4-2.4 5.8-2.8 6.8-1.8 1 .9 1.1.8.5-.7-.5-1.3-.4-1.7.4-1.2.7.4 1.2.3 1.2-.3 0-1 1.9-.9 3.7.2.9.6 1.1.3.7-.7-.4-1.1 0-1.6 1.2-1.7 1.1 0 2.8-.3 3.9-.5 1.1-.3 3.8-.6 6-.8 2.2-.1 4.6-.5 5.3-1 .6-.4 1.2-.3 1.2.3 0 .9 3.7.7 4.7-.3.3-.3 1.5-.1 2.8.4 1.4.5 2.6.5 3.4-.3.8-.8 1.1-.8 1.1 0 0 1.1.7 1.1 4.5.3 2-.5 3.6 0 3 .9-.3.5 0 1.3.6 1.7.7.4.9.3.5-.4-.3-.6-.1-1.4.5-1.8 1.4-.8 17.4-.8 18.8 0 .5.3 1.2 0 1.4-.6.4-.9.6-.9.6-.1.1.8 1 .9 3.1.3 1.9-.5 3-.5 3 .1s.5.7 1 .4c.6-.4 4.5-.7 8.8-.7 10.3 0 10.4 0 9.6 1.3-.3.6.5.4 1.8-.5 1.4-.9 2.7-1.4 3-1 .9.8 6.9 1.4 6.4.5-.3-.4.8-.6 2.3-.3l2.9.4-.2-7.4c-.1-4 .3-7.9.7-8.6.5-.6.6-1.2.1-1.2s-.9-5.2-.8-11.5v-11.4l-24.6-.3c-13.6-.2-25.3-.2-26.1-.1zM287.3 151.8l-11.2.3.4 4.4c.2 2.5-.1 4.7-.5 5-.5.3-.6 1.6-.2 2.8.9 2.5.8 5.9-.2 7.5-.3.6-.3 1.3.2 1.6.9.5.8 13.3-.1 14.3-.4.3-.2 1.3.3 2.3.7 1.3 2.3 1.7 7.2 1.8 8.8.1 9 .1 8.3 1.1-.3.5 0 1.3.6 1.7.8.4.9.3.5-.5-.9-1.4 1.7-2.5 6.1-2.4 1.8.1 3.4.2 3.6.3.9.6 4.7.5 4.7-.1 0-.5.7-.6 1.5-.3.8.4 1.2 1.1.8 1.8-.5.7-.2.7.8-.1.8-.6 2.4-1.1 3.4-.9 1.1.2 2.3-.2 2.7-.8.5-.7.8-.7.8-.1 0 1.2 4 1.3 5.8.1.7-.4 1.2-.3 1.2.3 0 .9 3.7.7 4.7-.3.3-.3 1.5-.1 2.8.4 1.3.5 2.6.6 2.9.3.8-.8 16.2-.7 17.5.1.5.3 1.2 0 1.4-.6.4-1 .6-1 .6-.1.1.9.8 1 2.6.3 1.4-.5 2.7-.5 3 0 .3.4 1.9.6 3.6.3 1.7-.2 3.7.1 4.7.9 1.1.9 1.4 1 .8.1-.5-1-.1-1.1 1.7-.4 1.4.6 2.8.7 3.1.4.3-.4.6-.1.6.5s.7.9 1.5.6c2-.8 10.6 2.6 9.8 3.9-.3.6-.1.7.5.3 1.3-.8 9.2 3.1 9.2 4.6 0 .5.4.7.9.4 1.2-.8 3.3 1.9 2.3 2.9-.4.5-.2.5.5.1 1.3-.7 12.3 9.3 12.3 11.2 0 .7.5 1.2 1.1 1.2.5 0 .8.4.5.9-.3.5.1 1.1.9 1.5.8.3 1.5 1.2 1.5 2.1 0 .8.5 1.5 1.1 1.5.8 0 .7.5-.1 1.5-1.1 1.3-1 1.4.5.9 1.3-.5 1.6-.3 1.3.7-.3.8.1 2 .8 2.7.7.7 1 2 .7 2.9-.4 1.1-.3 1.4.5.9.7-.4 1.3-.1 1.3.8.2 1.7.5 3.5.9 3.8.7 1 1.2 5.7 1.5 14.8.3 11.5-.3 17.3-1.6 16.5-.4-.3-.6.4-.4 1.5.5 2.5-1.3 8-2.7 8-.5 0-.7.4-.3 1 .5.8-1.2 4.8-2.6 6-.3.3-1.3 1.8-2.2 3.5-2 3.8-8.7 11.1-9.9 10.7-.5-.1-.7.2-.4.7 1.4 2.3-17 13.6-26.2 16-6.5 1.8-17.2 2.9-17.2 1.8 0-.6-.5-.6-1.2 0-.7.5-3.8.7-6.8.6-3-.2-6.2-.3-7-.3-.8 0-16.6.1-35 .3l-33.5.2v15c0 8.2-.4 15.6-.8 16.2-.5.7-.4 1.3.1 1.3.6 0 .8 1.6.6 3.5-.3 3.9-1.1 3.7 11.6 3.7 3.6 0 7.1.5 7.9 1.1 1.2.9 1.3.9.7-.1-.6-1 .1-1.3 3-1 2.7.2 3.8.8 4 2.1.1 1.1.5 2.2.9 2.5.3.4.4-.6.1-2.1l-.5-2.7 11.2.2c6.4 0 11.8.6 12.6 1.2 1.2.8 1.3.8.7-.2-.6-1 .1-1.3 3-1 2.7.2 3.8.8 4 2.1.1 1.1.5 2.2.9 2.5.3.4.4-.5.1-2l-.4-2.6h16.3c8.9 0 16.8-.2 17.3-.6.6-.3 1.4-.1 1.8.5.4.7.9.7 1.3.1.5-.8 7-2 13.4-2.5.9-.1 1.7-.5 1.7-1s1.1-.6 2.5-.3c1.4.4 2.5.3 2.5-.2s1.1-1.4 2.4-2c1.9-.8 2.6-.8 3 .1.2.7.5.4.5-.6.1-1.5 1.4-2.1 4.8-2 .7.1 1-.3.7-.8-.3-.5 0-.9.5-.9 1.8 0 2.6-.3 3.9-1.7 1.6-1.6 3.6-1.7 2.6-.1-.4.7-.3.8.5.4.6-.4.9-1.1.6-1.6-.3-.4.7-1.6 2.1-2.5 2.2-1.4 2.8-1.5 3.6-.4.8 1.1.9 1 .5-.3-.6-1.6 3-4.8 5.9-5.2.7-.1 1.7-.6 2.1-1.1.4-.4.2-.5-.6 0-.9.5-1.2.4-1-.4.3-.7.9-1.3 1.4-1.4 1.8-.4 12.1-11.4 17.4-18.9 1.9-2.6 3.8-4.5 4.4-4.1.6.3.7.1.4-.5-1.1-1.7.4-4.4 2.1-3.7 1.2.4 1.3.3.2-1-1.2-1.4-.7-1.9 1.3-1.6.5.1.6-.2.3-.7-.3-.5 1-4.6 2.9-9.1 1.9-4.6 3.5-9.1 3.5-10.2 0-1 .3-1.9.8-1.9.4 0 .8-1.9.9-4.1.2-2.3.7-4.7 1.2-5.3.4-.6.9-8.1.9-16.6.1-25.2-4.6-41.9-17-59.9-6.7-9.7-9.5-12.8-21-23.2-5.1-4.6-17.9-12.4-25.6-15.5-12.2-4.9-20.8-6.5-37.7-7-20.6-.7-59.8-1-74.2-.6z"/><path d="M175.3 193.5c0 .8.4 1.2.9.9.5-.3.6-1 .3-1.5-.9-1.3-1.2-1.1-1.2.6zM295.3 193.5c0 .8.4 1.2.9.9.5-.3.6-1 .3-1.5-.9-1.3-1.2-1.1-1.2.6zM335.3 193.5c0 .8.4 1.2.9.9.5-.3.6-1 .3-1.5-.9-1.3-1.2-1.1-1.2.6zM206.5 194c-.3.6.1.7.9.4 1.8-.7 2.1-1.4.7-1.4-.6 0-1.3.4-1.6 1zM279.6 194.2c.3.4 1.1.5 1.9.1 2.1-.7 1.9-1.2-.4-1-1.1 0-1.8.5-1.5.9zM169.5 196c-.3.5-.1 1 .4 1 .6 0 1.1-.5 1.1-1 0-.6-.2-1-.4-1-.3 0-.8.4-1.1 1zM183.9 196.7c-1.3 1.6-1.2 1.7.4.4 1.6-1.3 2.1-2.1 1.3-2.1-.2 0-1 .8-1.7 1.7zM195.1 196.7c.7 1.2 1.5 2 1.8 1.7.3-.2-.3-1.2-1.3-2.2-1.7-1.6-1.8-1.6-.5.5zM329 196c0 .5.5 1 1.1 1 .5 0 .7-.5.4-1-.3-.6-.8-1-1.1-1-.2 0-.4.4-.4 1zM343.9 196.7c-1.3 1.6-1.2 1.7.4.4 1.6-1.3 2.1-2.1 1.3-2.1-.2 0-1 .8-1.7 1.7zM357.5 196c-.3.5-.1 1 .4 1 .6 0 1.1-.5 1.1-1 0-.6-.2-1-.4-1-.3 0-.8.4-1.1 1zM366.4 195.8c.4.3 1.4.7 2.2.8.9.1 1.3 0 1-.4-.4-.3-1.4-.7-2.2-.8-.9-.1-1.3 0-1 .4zM376 196c-.9.6-1 1-.3 1 .6 0 1.5-.5 1.8-1 .8-1.2.4-1.2-1.5 0zM155.5 196.9c-.3.5-.2 1.2.3 1.5.5.3.9-.1.9-.9 0-1.7-.3-1.9-1.2-.6zM135.6 200.2c.3.5 1 .6 1.5.3 1.3-.9 1.1-1.2-.6-1.2-.8 0-1.2.4-.9.9zM207.5 200c.3.5.8 1 1.1 1 .2 0 .4-.5.4-1 0-.6-.5-1-1.1-1-.5 0-.7.4-.4 1zM385.5 202c.3.5.8 1 1.1 1 .2 0 .4-.5.4-1 0-.6-.5-1-1.1-1-.5 0-.7.4-.4 1zM117.3 205.5c0 .8.4 1.2.9.9.5-.3.6-1 .3-1.5-.9-1.3-1.2-1.1-1.2.6zM395.6 210.2c.3.4 1.1.5 1.9.1 2.1-.7 1.9-1.2-.4-1-1.1 0-1.8.5-1.5.9zM400 212c-.9.6-1 1-.3 1 .6 0 1.5-.5 1.8-1 .8-1.2.4-1.2-1.5 0zM405.5 216.9c-.3.5-.2 1.2.3 1.5.5.3.9-.1.9-.9 0-1.7-.3-1.9-1.2-.6zM411.6 223.3c.3 1 .9 1.5 1.2 1.2.3-.3 0-1.1-.7-1.8-1-.9-1.1-.8-.5.6zM173.5 236.1c-.4.5-.7 20.2-.5 34.8 0 3.5.3 6.1.7 5.8.3-.4 1.3-.1 2.1.6.9.6 1.3.7 1 .2-.4-.6.9-1 3.2-1 2.1 0 3.6.4 3.3.9-.4.5 0 .6.7.1 1.7-1.1 11-1.3 10.4-.3-.3.4.3.5 1.2.1 2.5-.9 10.7-.8 12.4.2.7.5 1.1.4.8-.1-.3-.5 1.8-.9 4.7-1 3.2 0 5.1.4 4.8.9-.3.6-.1.7.6.3 1.8-1.1 8.2-1.5 7.5-.5-.3.5.3.6 1.2.2 2.5-.9 10.7-.8 12.4.2.7.5 1.1.4.8-.1-.3-.5 1.8-.9 4.7-1 3 0 5.2.3 4.9.8-.3.4.3.5 1.2.1 2.5-.9 10.7-.8 12.4.2.7.5 1.1.4.8-.1-.8-1.1 13.3-1.1 15.2.1.7.5 1.1.4.8-.1-.4-.5 5-.9 12.7-.9 7.3 0 13.1.4 12.8.8-.3.5.3.5 1.3 0 1.1-.5 8.5-.8 16.7-.7H339l-.2-20.5-.3-20.6h-82.3c-45.3 0-82.5.3-82.7.6z"/><path d="M215.4 278.4c.1.8.5 1.8.8 2.2.4.3.5-.1.4-1-.1-.8-.5-1.8-.8-2.2-.4-.3-.5.1-.4 1zM247.4 278.4c.1.8.5 1.8.8 2.2.4.3.5-.1.4-1-.1-.8-.5-1.8-.8-2.2-.4-.3-.5.1-.4 1zM323 278c0 .5.5 1 1.1 1 .5 0 .7-.5.4-1-.3-.6-.8-1-1.1-1-.2 0-.4.4-.4 1zM259.3 279.5c0 .8.4 1.2.9.9.5-.3.6-1 .3-1.5-.9-1.3-1.2-1.1-1.2.6zM275.3 279.5c0 .8.4 1.2.9.9.5-.3.6-1 .3-1.5-.9-1.3-1.2-1.1-1.2.6zM183.5 279.9c-.3.5-.2 1.2.3 1.5.5.3.9-.1.9-.9 0-1.7-.3-1.9-1.2-.6zM198.6 280.2c.3.5 1 .6 1.5.3 1.3-.9 1.1-1.2-.6-1.2-.8 0-1.2.4-.9.9zM218.6 280.2c.3.5 1 .6 1.5.3 1.3-.9 1.1-1.2-.6-1.2-.8 0-1.2.4-.9.9zM230.6 280.2c.3.5 1 .6 1.5.3 1.3-.9 1.1-1.2-.6-1.2-.8 0-1.2.4-.9.9zM250.6 280.2c.3.5 1 .6 1.5.3 1.3-.9 1.1-1.2-.6-1.2-.8 0-1.2.4-.9.9zM310.6 280.2c.3.5 1 .6 1.5.3 1.3-.9 1.1-1.2-.6-1.2-.8 0-1.2.4-.9.9zM193.5 282c-.3.5-.1 1 .4 1 .6 0 1.1-.5 1.1-1 0-.6-.2-1-.4-1-.3 0-.8.4-1.1 1zM203.5 282c.3.5.8 1 1.1 1 .2 0 .4-.5.4-1 0-.6-.5-1-1.1-1-.5 0-.7.4-.4 1zM209.6 282.2c.3.4 1.1.5 1.9.1 2.1-.7 1.9-1.2-.4-1-1.1 0-1.8.5-1.5.9zM221.3 283.1c-.2 2.3.3 2.5 1 .4.4-.8.3-1.6-.1-1.9-.4-.3-.9.4-.9 1.5zM225.5 282c-.3.5-.1 1 .4 1 .6 0 1.1-.5 1.1-1 0-.6-.2-1-.4-1-.3 0-.8.4-1.1 1zM235.5 282c.3.5.8 1 1.1 1 .2 0 .4-.5.4-1 0-.6-.5-1-1.1-1-.5 0-.7.4-.4 1zM241.6 282.2c.3.4 1.1.5 1.9.1 2.1-.7 1.9-1.2-.4-1-1.1 0-1.8.5-1.5.9zM261.4 282.2c-.4.7-.4 1 .1.6.4-.4 1.5-.2 2.4.5 1.4 1.1 1.4 1 .2-.6-1.6-2-1.8-2.1-2.7-.5zM277.4 282.2c-.4.7-.4 1 .1.6.4-.4 1.5-.2 2.4.5 1.4 1.1 1.4 1 .2-.6-1.6-2-1.8-2.1-2.7-.5zM291.6 281.8c-.3.5.1.9.9.9s1.2-.4.9-.9c-.3-.4-.7-.8-.9-.8-.2 0-.6.4-.9.8zM305.5 282c-.3.5-.1 1 .4 1 .6 0 1.1-.5 1.1-1 0-.6-.2-1-.4-1-.3 0-.8.4-1.1 1zM315.5 282c.3.5.8 1 1.1 1 .2 0 .4-.5.4-1 0-.6-.5-1-1.1-1-.5 0-.7.4-.4 1zM321 281.5c0 .7 3 1.3 3.4.7.3-.4-.4-.9-1.5-.9-1-.1-1.9 0-1.9.2zM199.5 284c-.3.5-.1 1 .4 1 .6 0 1.1-.5 1.1-1 0-.6-.2-1-.4-1-.3 0-.8.4-1.1 1zM231.5 284c-.3.5-.1 1 .4 1 .6 0 1.1-.5 1.1-1 0-.6-.2-1-.4-1-.3 0-.8.4-1.1 1zM311.5 284c-.3.5-.1 1 .4 1 .6 0 1.1-.5 1.1-1 0-.6-.2-1-.4-1-.3 0-.8.4-1.1 1zM55.4 304c0 1.3.4 1.6 1 1 .7-.7.7-1.3 0-2-.6-.6-1-.3-1 1zM457.6 303.8c-.3.5.1.9.9.9s1.2-.4.9-.9c-.3-.4-.7-.8-.9-.8-.2 0-.6.4-.9.8zM413.6 350.2c.3.4 1.1.5 1.9.1 2.1-.7 1.9-1.2-.4-1-1.1 0-1.8.5-1.5.9zM405 353.5c0 .7 3 1.3 3.4.7.3-.4-.4-.9-1.5-.9-1-.1-1.9 0-1.9.2zM375.3 361.5c0 .8.4 1.2.9.9.5-.3.6-1 .3-1.5-.9-1.3-1.2-1.1-1.2.6zM123 362c0 .5.5 1 1.1 1 .5 0 .7-.5.4-1-.3-.6-.8-1-1.1-1-.2 0-.4.4-.4 1zM129.5 362c.3.5.8 1 1.1 1 .2 0 .4-.5.4-1 0-.6-.5-1-1.1-1-.5 0-.7.4-.4 1zM155 361.8c0 .5.7.9 1.5.9s1.2-.4.9-.9c-.3-.4-.9-.8-1.5-.8-.5 0-.9.4-.9.8zM176 362c-.9.6-1 1-.3 1 .6 0 1.5-.5 1.8-1 .8-1.2.4-1.2-1.5 0zM186.6 361.8c-.3.5.1.9.9.9s1.5-.4 1.5-.9c0-.4-.4-.8-.9-.8-.6 0-1.2.4-1.5.8zM200 362.4c-.9 1.1-.9 1.9 0 3.3 1.1 1.7 1.1 1.7.6-.1-.4-1-.1-2.5.5-3.2.6-.8.9-1.4.6-1.4-.2 0-1 .7-1.7 1.4zM298.6 361.8c-.3.5.1.9.9.9s1.5-.4 1.5-.9c0-.4-.4-.8-.9-.8-.6 0-1.2.4-1.5.8zM330.6 361.8c-.3.5.1.9.9.9s1.5-.4 1.5-.9c0-.4-.4-.8-.9-.8-.6 0-1.2.4-1.5.8zM179 362.3c0 .2.6 1 1.4 1.6 1.1.9 1.6.9 2.2-.1.4-.7.4-1-.1-.6-.4.4-1.4.3-2.2-.3-.7-.6-1.3-.9-1.3-.6zM291 362.3c0 .2.6 1 1.4 1.6 1.1.9 1.6.9 2.2-.1.4-.7.4-1-.1-.6-.4.4-1.4.3-2.2-.3-.7-.6-1.3-.9-1.3-.6zM323 362.3c0 .2.6 1 1.4 1.6 1.1.9 1.6.9 2.2-.1.4-.7.4-1-.1-.6-.4.4-1.4.3-2.2-.3-.7-.6-1.3-.9-1.3-.6zM147 363.5c0 .5.5 1.7 1 2.5s1 1 1 .5c0-.6-.5-1.7-1-2.5s-1-1.1-1-.5zM161 364c0 .5.5 1 1.1 1 .5 0 .7-.5.4-1-.3-.6-.8-1-1.1-1-.2 0-.4.4-.4 1zM194 363.5c0 .2.6.8 1.3 1.4 1 .8 1.4.7 1.4-.2 0-.8-.6-1.4-1.4-1.4-.7 0-1.3.1-1.3.2zM205 364.1c0 .5.5.7 1 .4.6-.3 1-.8 1-1.1 0-.2-.4-.4-1-.4-.5 0-1 .5-1 1.1zM209 364c0 .5.5 1 1.1 1 .5 0 .7-.5.4-1-.3-.6-.8-1-1.1-1-.2 0-.4.4-.4 1zM354 363.4c0 .2.8 1 1.8 1.7 1.5 1.3 1.6 1.2.3-.4s-2.1-2.1-2.1-1.3zM363.1 364.7c.7 1.2 1.5 2 1.8 1.7.3-.2-.3-1.2-1.3-2.2-1.7-1.6-1.8-1.6-.5.5zM157.6 366.7c-.6 1.4-.5 1.5.5.6.7-.7 1-1.5.7-1.8-.3-.3-.9.2-1.2 1.2zM185.3 366.5c0 .8.4 1.2.9.9.5-.3.6-1 .3-1.5-.9-1.3-1.2-1.1-1.2.6zM297.3 366.5c0 .8.4 1.2.9.9.5-.3.6-1 .3-1.5-.9-1.3-1.2-1.1-1.2.6zM329.3 366.5c0 .8.4 1.2.9.9.5-.3.6-1 .3-1.5-.9-1.3-1.2-1.1-1.2.6zM171.6 367.8c-.3.5.1.9.9.9s1.2-.4.9-.9c-.3-.4-.7-.8-.9-.8-.2 0-.6.4-.9.8zM223.6 370.7c-.6 1.4-.5 1.5.5.6.7-.7 1-1.5.7-1.8-.3-.3-.9.2-1.2 1.2z"/></svg>